<?xml version="1.0" encoding="UTF-8"?>
<svg version="1.1" xmlns="http://www.w3.org/2000/svg" width="512" height="512">
<path d="M0 0 C1.01823853 0.00215515 2.03647705 0.0043103 3.08557129 0.00653076 C17.70747424 0.05622604 32.00633932 0.36188758 46.375 3.3125 C47.89383789 3.61051514 47.89383789 3.61051514 49.44335938 3.91455078 C86.28914772 11.28260462 121.03421683 26.0702273 151.375 48.3125 C152.2424585 48.94454346 152.2424585 48.94454346 153.12744141 49.58935547 C160.403389 54.92699563 167.14857031 60.67721323 173.72265625 66.84765625 C175.83211064 68.80798868 177.96445942 70.67304683 180.1875 72.5 C183.26733074 75.10601062 185.8460233 78.00552754 188.44921875 81.08203125 C189.78897712 82.6337595 191.17037062 84.15010269 192.58203125 85.63671875 C205.20992419 98.95822778 215.2717104 114.43030998 224.375 130.3125 C224.80409668 131.06080078 225.23319336 131.80910156 225.67529297 132.58007812 C238.37173715 155.02119946 246.75227501 179.33880238 252.125 204.5 C252.42325684 205.88723267 252.42325684 205.88723267 252.72753906 207.30249023 C256.01941382 223.5091858 256.75030274 239.44287961 256.6875 255.9375 C256.68534485 256.95573853 256.6831897 257.97397705 256.68096924 259.02307129 C256.63127396 273.64497424 256.32561242 287.94383932 253.375 302.3125 C253.07698486 303.83133789 253.07698486 303.83133789 252.77294922 305.38085938 C245.40489538 342.22664772 230.6172727 376.97171683 208.375 407.3125 C207.9536377 407.89080566 207.53227539 408.46911133 207.09814453 409.06494141 C201.76050437 416.340889 196.01028677 423.08607031 189.83984375 429.66015625 C187.87951132 431.76961064 186.01445317 433.90195942 184.1875 436.125 C181.58148938 439.20483074 178.68197246 441.7835233 175.60546875 444.38671875 C174.0537405 445.72647712 172.53739731 447.10787062 171.05078125 448.51953125 C157.72927222 461.14742419 142.25719002 471.2092104 126.375 480.3125 C125.62669922 480.74159668 124.87839844 481.17069336 124.10742188 481.61279297 C101.66630054 494.30923715 77.34869762 502.68977501 52.1875 508.0625 C51.26267822 508.26133789 50.33785645 508.46017578 49.38500977 508.66503906 C33.1783142 511.95691382 17.24462039 512.68780274 0.75 512.625 C-0.77735779 512.62176727 -0.77735779 512.62176727 -2.33557129 512.61846924 C-16.95747424 512.56877396 -31.25633932 512.26311242 -45.625 509.3125 C-46.63755859 509.11382324 -47.65011719 508.91514648 -48.69335938 508.71044922 C-85.53914772 501.34239538 -120.28421683 486.5547727 -150.625 464.3125 C-151.20330566 463.8911377 -151.78161133 463.46977539 -152.37744141 463.03564453 C-159.653389 457.69800437 -166.39857031 451.94778677 -172.97265625 445.77734375 C-175.08211064 443.81701132 -177.21445942 441.95195317 -179.4375 440.125 C-182.51733074 437.51898938 -185.0960233 434.61947246 -187.69921875 431.54296875 C-189.03897712 429.9912405 -190.42037062 428.47489731 -191.83203125 426.98828125 C-204.45992419 413.66677222 -214.5217104 398.19469002 -223.625 382.3125 C-224.26864502 381.19004883 -224.26864502 381.19004883 -224.92529297 380.04492188 C-237.62173715 357.60380054 -246.00227501 333.28619762 -251.375 308.125 C-251.57383789 307.20017822 -251.77267578 306.27535645 -251.97753906 305.32250977 C-255.26941382 289.1158142 -256.00030274 273.18212039 -255.9375 256.6875 C-255.93534485 255.66926147 -255.9331897 254.65102295 -255.93096924 253.60192871 C-255.88127396 238.98002576 -255.57561242 224.68116068 -252.625 210.3125 C-252.42632324 209.29994141 -252.22764648 208.28738281 -252.02294922 207.24414062 C-244.65489538 170.39835228 -229.8672727 135.65328317 -207.625 105.3125 C-206.99295654 104.4450415 -206.99295654 104.4450415 -206.34814453 103.56005859 C-201.01050437 96.284111 -195.26028677 89.53892969 -189.08984375 82.96484375 C-187.12951132 80.85538936 -185.26445317 78.72304058 -183.4375 76.5 C-180.83148938 73.42016926 -177.93197246 70.8414767 -174.85546875 68.23828125 C-173.3037405 66.89852288 -171.78739731 65.51712938 -170.30078125 64.10546875 C-156.97927222 51.47757581 -141.50719002 41.4157896 -125.625 32.3125 C-124.87669922 31.88340332 -124.12839844 31.45430664 -123.35742188 31.01220703 C-100.91630054 18.31576285 -76.59869762 9.93522499 -51.4375 4.5625 C-50.51267822 4.36366211 -49.58785645 4.16482422 -48.63500977 3.95996094 C-32.4283142 0.66808618 -16.49462039 -0.06280274 0 0 Z " fill="#FF6C38" transform="translate(255.625,-0.3125)"/>
<path d="M0 0 C1.19496094 -0.03287109 2.38992187 -0.06574219 3.62109375 -0.09960938 C16.32038755 -0.17528231 27.10914139 3.63679494 36.375 12.4375 C38.50200644 14.7013056 40.43779666 17.00357785 42.375 19.4375 C42.705 14.1575 43.035 8.8775 43.375 3.4375 C59.215 3.4375 75.055 3.4375 91.375 3.4375 C91.44303401 21.58932182 91.49816477 39.74103278 91.53043652 57.8929472 C91.54582707 66.32345369 91.56676474 74.75387464 91.60131836 83.18432617 C91.63146254 90.54253877 91.65063155 97.90068934 91.65726548 105.25896198 C91.66113596 109.14583549 91.67006328 113.03253175 91.69219017 116.91934776 C91.84774321 145.41919132 91.64712758 173.92861833 73.375 197.4375 C72.88386719 198.0975 72.39273438 198.7575 71.88671875 199.4375 C58.51026076 216.31821319 35.10132419 224.8609282 14.375 227.4375 C8.98310169 227.84428587 3.58787114 227.83114168 -1.81616211 227.77368164 C-4.18963549 227.74997867 -6.56198375 227.75316764 -8.93554688 227.75976562 C-21.52103084 227.73817608 -34.04017478 227.14636615 -46 222.875 C-47.86785156 222.22337891 -47.86785156 222.22337891 -49.7734375 221.55859375 C-52.625 220.4375 -52.625 220.4375 -53.625 219.4375 C-53.71365208 216.5531618 -53.74021296 213.69287842 -53.72265625 210.80859375 C-53.7212413 209.94436295 -53.71982635 209.08013214 -53.71836853 208.18971252 C-53.71275239 205.41810708 -53.70019719 202.6465812 -53.6875 199.875 C-53.68248708 198.0006522 -53.67792381 196.12630315 -53.67382812 194.25195312 C-53.66277772 189.64710456 -53.6455023 185.04231579 -53.625 180.4375 C-49.6900625 181.72809976 -45.91394008 183.14153485 -42.125 184.8125 C-25.20106679 191.94503046 -3.66426653 196.59260068 14.20214844 189.73632812 C25.48888501 184.856526 34.44114549 178.69273134 39.3828125 167.06640625 C41.93345837 159.72401303 42.51752486 152.78182099 42.4375 145.0625 C42.43298828 144.23105469 42.42847656 143.39960938 42.42382812 142.54296875 C42.41213164 140.50778103 42.39419935 138.47263077 42.375 136.4375 C41.82972656 137.07816406 41.28445312 137.71882812 40.72265625 138.37890625 C31.23928262 149.25641686 21.79387336 156.38656426 7.375 159.4375 C-11.90894469 160.69714009 -28.93649573 159.60937365 -44.25927734 146.74926758 C-57.38768854 135.13345076 -65.42875838 117.78008766 -67.625 100.4375 C-67.88572707 95.75663428 -67.9550275 91.09523008 -67.94067383 86.40795898 C-67.93753058 84.27079364 -67.96099022 82.13504053 -67.98632812 79.99804688 C-68.09336184 56.81865277 -61.22958942 34.8298492 -45.03515625 17.71875 C-31.84311894 5.23228357 -17.85736293 0.08503506 0 0 Z " fill="#FFFDFD" transform="translate(157.625,147.5625)"/>
<path d="M0 0 C15.16657962 13.190652 24.71004727 30.11325999 26.52416992 50.33398438 C26.65467726 53.78832714 26.68627215 57.2230577 26.65625 60.6796875 C26.64940186 61.90107422 26.64255371 63.12246094 26.63549805 64.38085938 C26.24811008 86.30672791 19.02847808 106.2865779 3.859375 122.38671875 C-12.76887429 138.40001799 -34.36559123 143.32813557 -56.78125 143.1796875 C-57.94914062 143.18742188 -59.11703125 143.19515625 -60.3203125 143.203125 C-82.50038253 143.15394524 -102.04500488 136.97795118 -118.43359375 121.46875 C-136.23021864 102.22115236 -139.70893793 78.30143321 -138.95166016 53.00537109 C-138.03345514 36.43295444 -130.87460238 20.22995554 -119.78125 7.9296875 C-119.28625 7.34316406 -118.79125 6.75664062 -118.28125 6.15234375 C-90.58330134 -24.38464465 -30.95748677 -25.39821978 0 0 Z " fill="#FFFEFD" transform="translate(406.78125,164.0703125)"/>
<path d="M0 0 C1.29744141 -0.04350586 1.29744141 -0.04350586 2.62109375 -0.08789062 C11.81581698 -0.17749437 18.89208346 3.01571144 25.5859375 9.26953125 C33.61402056 18.43697108 34.76001367 30.35568637 34.6875 42.0625 C34.68186035 43.02260986 34.6762207 43.98271973 34.67041016 44.97192383 C34.4573378 57.53158965 32.75310011 70.85802204 23.48828125 80.21875 C16.34617837 85.94365761 8.97579415 87.8650971 -0.0625 87.75 C-0.90143799 87.74170166 -1.74037598 87.73340332 -2.60473633 87.72485352 C-8.67804919 87.55850193 -13.57646114 86.92012396 -18.625 83.3125 C-19.32753906 82.81492187 -20.03007812 82.31734375 -20.75390625 81.8046875 C-29.11701659 75.18196661 -32.51716425 66.54246284 -34.625 56.3125 C-35.01039612 52.48735343 -35.05562011 48.71699117 -35 44.875 C-34.99129883 43.86945068 -34.98259766 42.86390137 -34.97363281 41.82788086 C-34.73630431 29.81458453 -32.40117909 18.0591574 -24.25 8.76171875 C-16.81624627 2.13209703 -9.64394491 0.10497763 0 0 Z " fill="#FF6C39" transform="translate(350.625,183.6875)"/>
<path d="M0 0 C8.714655 6.07800103 14.69422682 14.66085235 16.875 25.0625 C18.06226205 42.77975614 19.1963827 61.90698033 6.91015625 76.19140625 C-1.21440233 83.66101001 -9.32440613 85.62970244 -20.03125 85.3984375 C-27.48337719 84.98481026 -32.83064331 81.74077425 -37.9375 76.4375 C-48.8913901 62.76455916 -47.91368739 46.24267973 -46.921875 29.66796875 C-45.51396806 19.46064344 -40.3169561 8.93265379 -32.3125 2.39453125 C-23.23290106 -3.13429596 -9.82027417 -4.96164202 0 0 Z " fill="#FF6C39" transform="translate(185.125,185.9375)"/>
</svg>
