<?xml version="1.0" encoding="UTF-8"?>
<svg version="1.1" xmlns="http://www.w3.org/2000/svg" width="512" height="512">
<path d="M0 0 C3.717948 0.00477276 7.43584631 -0.0078142 11.15377784 -0.01801741 C18.41927304 -0.03513191 25.68468148 -0.03606066 32.95019159 -0.03080451 C38.86215079 -0.02674726 44.77408454 -0.02822473 50.68604255 -0.03355277 C51.53056036 -0.03430119 52.37507818 -0.03504961 53.24518745 -0.03582071 C54.96137455 -0.03735235 56.67756164 -0.03889069 58.39374873 -0.04043568 C74.45473307 -0.05413451 90.51566858 -0.04874182 106.57665178 -0.03725047 C121.2322263 -0.02732416 135.88767446 -0.040253 150.54322949 -0.06418466 C165.6328648 -0.08863729 180.72244141 -0.09816823 195.81209612 -0.09153193 C204.26720122 -0.08805294 212.72220927 -0.09018376 221.17729926 -0.10778296 C228.3759681 -0.12258247 235.57447156 -0.12304028 242.77313742 -0.10571205 C246.43738116 -0.09726223 250.10133046 -0.09490245 253.765558 -0.1103636 C272.59778079 -0.1841721 290.93113415 0.1895035 308.39533973 8.09433305 C309.17393348 8.43537065 309.95252723 8.77640825 310.75471473 9.12778032 C322.57073581 14.47191054 332.87373811 21.82994297 342.58283973 30.40683305 C343.26604285 31.00624712 343.94924598 31.60566118 344.65315223 32.2232393 C358.15240402 44.87537206 367.03316879 61.32684946 372.95783973 78.65683305 C373.19671912 79.3526851 373.43559852 80.04853715 373.68171668 80.76547563 C377.0200247 91.13078307 377.87961272 101.51147577 377.85026526 112.34570634 C377.85479638 113.59282628 377.85932749 114.83994622 377.86399591 116.12485766 C377.87439307 119.55194629 377.8759784 122.97882342 377.87360716 126.40591252 C377.87319622 130.11570697 377.88426437 133.82547103 377.8937223 137.53525102 C377.91027399 144.79077654 377.9158292 152.04626954 377.91694705 159.30181237 C377.91790035 165.20526647 377.92202465 171.10870993 377.9283483 177.01216066 C377.94594518 193.78337004 377.95518966 210.55455392 377.95368735 227.3257726 C377.95360744 228.22827938 377.95352753 229.13078617 377.9534452 230.06064165 C377.95336343 230.96426216 377.95328167 231.86788267 377.95319743 232.79888563 C377.95238508 247.43268926 377.97151396 262.06638984 377.99972193 276.70016368 C378.0285184 291.75918306 378.0422585 306.8181523 378.04053438 321.87719989 C378.03987278 330.31835185 378.04526329 338.75939577 378.06689048 347.20052278 C378.08519162 354.38903733 378.08937693 361.57739486 378.07587163 368.76592274 C378.06938652 372.42597761 378.06906082 376.08573205 378.08657813 379.74575746 C378.24891643 415.96920837 369.6240856 445.63281562 344.14533973 472.21933305 C332.38426991 483.46092099 318.32646948 492.26654019 303.02033973 497.78183305 C302.39748084 498.00830522 301.77462195 498.23477739 301.13288856 498.46811235 C298.96709857 499.19753485 296.78734999 499.80333544 294.58283973 500.40683305 C293.25032786 500.78695842 293.25032786 500.78695842 291.89089656 501.17476308 C278.81987655 504.3444807 265.52069327 503.84261882 252.15102041 503.81366611 C248.43104653 503.80889341 244.71112233 503.82148019 240.99116492 503.83168352 C233.72199473 503.84879763 226.45291125 503.84972692 219.18372615 503.84447061 C213.26937469 503.84041361 207.35504866 503.84189055 201.44069839 503.84721887 C200.17348858 503.8483415 200.17348858 503.8483415 198.88067857 503.84948682 C197.16392574 503.85101845 195.44717291 503.85255679 193.73042009 503.85410178 C177.66469712 503.86780026 161.59902298 503.86240798 145.53330115 503.85091657 C130.87058458 503.84098838 116.20799427 503.85392244 101.54529717 503.87785076 C86.45001663 503.90229736 71.35479476 503.91183592 56.25949484 503.90519804 C47.80050924 503.90171796 39.34162065 503.90385725 30.88265014 503.92144907 C23.68139087 503.93624089 16.48029692 503.93671614 9.27904066 503.91937815 C5.61289558 503.91092249 1.94704494 503.90858338 -1.71908402 503.92402971 C-37.58321929 504.06414777 -67.22504237 495.69963202 -93.66716027 470.53183305 C-114.20001441 448.94601204 -125.56907512 421.86469087 -125.56433129 392.06923234 C-125.56800798 390.82638453 -125.57168467 389.58353672 -125.57547277 388.30302685 C-125.58456489 384.86469842 -125.58920166 381.42641758 -125.59186208 377.98808169 C-125.59577978 374.27479852 -125.60535714 370.56152898 -125.61407495 366.84825456 C-125.63379954 357.88549241 -125.64390112 348.9227292 -125.65280274 339.95995077 C-125.65719278 335.73193033 -125.66255777 331.50391113 -125.6677916 327.27589166 C-125.68480095 313.20799556 -125.6992926 299.14010021 -125.70654035 285.07219541 C-125.70845003 281.42487084 -125.71037039 277.77754627 -125.71232629 274.13022172 C-125.71281003 273.2237737 -125.71329377 272.31732568 -125.71379217 271.38340954 C-125.72208308 256.71696052 -125.74740542 242.05059331 -125.77990697 227.38417997 C-125.81305383 212.30272432 -125.83099604 197.22131014 -125.83418459 182.13981789 C-125.83634279 173.68181683 -125.84498967 165.22393502 -125.87064576 156.76596963 C-125.89245737 149.55904322 -125.90035223 142.35226503 -125.89067898 135.14530935 C-125.88616413 131.4751569 -125.88785377 127.80530959 -125.90744042 124.1351999 C-126.08999792 87.88055721 -117.48181158 58.20527355 -91.97966027 31.59433305 C-80.21859045 20.35274511 -66.16079003 11.54712591 -50.85466027 6.03183305 C-50.23180139 5.80536088 -49.6089425 5.57888872 -48.9672091 5.34555376 C-46.8014168 4.61613048 -44.62167693 4.01031781 -42.41716027 3.40683305 C-41.52863492 3.15341614 -40.64010957 2.89999923 -39.7246592 2.63890302 C-26.65822591 -0.52927893 -13.36495637 -0.02895881 0 0 Z " fill="#CF381E" transform="translate(129.41716027259827,3.593166947364807)"/>
<path d="M0 0 C4.08255422 2.91070995 6.17326875 6.52123783 7.6875 11.203125 C7.91533402 13.92671182 8.03220874 16.50493271 8.015625 19.2265625 C8.01226135 20.01179291 8.00889771 20.79702332 8.00543213 21.60604858 C7.82630227 31.16619274 6.13756964 40.44266425 4.4375 49.828125 C4.11431728 51.67601012 3.7926338 53.52415805 3.47241211 55.37255859 C2.84328144 58.99444178 2.20703036 62.61494068 1.56396484 66.234375 C0.4080184 72.7572268 -0.67435245 79.29157606 -1.75 85.828125 C-2.06075064 87.69538699 -2.37188925 89.5625845 -2.68359375 91.4296875 C-2.89113281 92.67492187 -3.09867188 93.92015625 -3.3125 95.203125 C1.40769666 93.8070105 3.29988034 91.61921193 6.1875 87.703125 C6.6112793 87.13416504 7.03505859 86.56520508 7.47167969 85.97900391 C8.89099146 84.0635972 10.29079841 82.13507264 11.6875 80.203125 C12.18314453 79.52088867 12.67878906 78.83865234 13.18945312 78.13574219 C15.89318122 74.4117071 18.58440986 70.67887351 21.26953125 66.94140625 C26.41915319 59.78513105 31.66876635 52.70242435 36.90820312 45.61181641 C39.30589396 42.3659852 41.70056213 39.11793335 44.09423828 35.86914062 C45.27136377 34.27209732 46.44940799 32.67573072 47.62841797 31.08007812 C50.38810032 27.34211223 53.13167043 23.59470241 55.8359375 19.81640625 C56.32940674 19.13094727 56.82287598 18.44548828 57.33129883 17.73925781 C58.24321511 16.47064118 59.14977343 15.1981465 60.04956055 13.92089844 C63.66028363 8.91254514 67.6100681 4.82377351 73.6875 3.203125 C79.68785902 2.62926516 84.57243585 2.67129499 89.6875 6.203125 C92.15556499 8.3464446 93.48714582 9.90987211 93.99560547 13.19189453 C94.19391024 21.01755799 91.96728383 27.67607974 89.4375 35.015625 C88.63985214 37.39687667 87.8429735 39.77838615 87.046875 42.16015625 C86.65137451 43.3311084 86.25587402 44.50206055 85.84838867 45.70849609 C84.03163092 51.17749093 82.36096253 56.68896483 80.6875 62.203125 C80.12973848 64.01067368 79.5711819 65.81797728 79.01171875 67.625 C75.8239546 77.97586902 72.72653267 88.35196588 69.75 98.765625 C69.29016724 100.3439209 69.29016724 100.3439209 68.82104492 101.95410156 C67.45140994 106.80201818 66.26083439 111.10926001 66.6875 116.203125 C67.3475 116.203125 68.0075 116.203125 68.6875 116.203125 C70.2712028 114.13640825 70.2712028 114.13640825 71.890625 111.4375 C72.53410889 110.41221191 73.17759277 109.38692383 73.84057617 108.33056641 C74.53256104 107.21601074 75.2245459 106.10145508 75.9375 104.953125 C77.39110622 102.63939262 78.85224453 100.33050248 80.31640625 98.0234375 C80.68522415 97.44197968 81.05404205 96.86052185 81.43403625 96.26144409 C85.8408667 89.3461139 90.56719057 82.66907176 95.3125 75.984375 C98.17649295 71.94965051 100.96119493 67.86640422 103.72875977 63.76513672 C109.31660275 55.4931734 115.12532124 47.50402165 121.42626953 39.76123047 C122.66231612 38.23423679 123.87635378 36.68951117 125.08984375 35.14453125 C137.86078206 19.05533205 137.86078206 19.05533205 145.984375 17.8671875 C152.03631754 17.77081899 156.82675845 18.3878201 161.6875 22.203125 C166.0821414 26.84369524 167.10644636 31.1180604 166.96826172 37.36035156 C166.44281037 42.68066072 164.79840434 47.66730832 163.25 52.765625 C154.66939152 82.48691957 146.18727033 114.08513399 146.6875 145.203125 C157.43298231 139.34898439 163.83663573 126.26478244 170.4375 116.265625 C171.42153568 114.78102415 172.40566727 113.29648687 173.38989258 111.81201172 C180.30313877 101.36848286 187.18111675 90.90654221 193.6875 80.203125 C194.14092773 79.46094727 194.59435547 78.71876953 195.06152344 77.95410156 C201.67430789 67.05892773 207.36899536 55.87648051 212.7890625 44.34765625 C215.94136665 37.64273805 219.16589829 30.97560071 222.4375 24.328125 C223.21552979 22.71538696 223.21552979 22.71538696 224.00927734 21.07006836 C228.51506016 11.95905786 234.46799776 0.81000815 244.6875 -2.796875 C250.67587145 -3.48784094 254.79088814 -2.08518547 259.6875 1.203125 C262.44230879 3.39233295 264.30953491 5.64479351 265.1640625 9.16796875 C265.75057046 17.70320303 261.13691183 25.27138863 257.48046875 32.69140625 C247.9809146 52.06102389 240.42635871 72.24554475 234.35205078 92.94824219 C233.8966465 94.4934714 233.43094326 96.03569191 232.95654297 97.57519531 C230.30674951 106.2101378 228.24908369 114.43898355 228.1875 123.515625 C228.18121582 124.20285645 228.17493164 124.89008789 228.16845703 125.59814453 C228.28503673 130.16059862 229.49261877 133.25117129 231.6875 137.203125 C231.6875 137.863125 231.6875 138.523125 231.6875 139.203125 C237.08425231 141.00204244 241.88863205 140.90982312 247.1875 138.828125 C256.62485685 132.57847955 262.17551031 122.51551112 267.3125 112.765625 C268.00100599 111.48502319 268.69106186 110.2052536 269.38256836 108.92626953 C270.79965754 106.30314309 272.21073951 103.67692458 273.61767578 101.04833984 C276.76228919 95.18824946 280.00893729 89.38531363 283.25 83.578125 C284.48862701 81.35175482 285.72690809 79.12519216 286.96484375 76.8984375 C287.5769873 75.79790039 288.18913086 74.69736328 288.81982422 73.56347656 C290.71682487 70.15036323 292.6107783 66.73557522 294.50390625 63.3203125 C298.22408664 56.61029387 301.95189206 49.9045671 305.6875 43.203125 C306.28933105 42.12321289 306.89116211 41.04330078 307.51123047 39.93066406 C309.25296345 36.81059146 311.00041349 33.69379921 312.75 30.578125 C313.26191895 29.66063477 313.77383789 28.74314453 314.30126953 27.79785156 C325.49212152 7.93491783 325.49212152 7.93491783 333.6875 5.203125 C344.99955067 4.20740337 344.99955067 4.20740337 349.375 7.078125 C352.31238594 9.77734451 352.9408008 11.44668819 353.25 15.328125 C353.12248724 23.46575746 348.52618572 30.27289005 344.6875 37.203125 C343.78283825 38.86012284 342.87923021 40.5176963 341.9765625 42.17578125 C340.49723994 44.88900763 339.01565659 47.60088493 337.52758789 50.30932617 C331.6682252 60.99393974 326.09627104 71.82447971 320.51708984 82.65722656 C318.67053944 86.23599598 316.81531869 89.81013115 314.95703125 93.3828125 C306.36687801 109.90619704 297.86541625 126.47088147 289.6875 143.203125 C289.23568359 144.12512695 288.78386719 145.04712891 288.31835938 145.99707031 C276.0657112 171.24580692 266.54214722 198.00993071 259.6875 225.203125 C259.40793457 226.29383301 259.12836914 227.38454102 258.84033203 228.50830078 C253.09797338 250.91868753 249.01570461 272.74171462 256.76953125 295.359375 C258.47641624 300.64708679 258.36306832 305.37909054 256.4375 310.578125 C254.59426037 313.34298445 253.55635209 314.56578015 250.6875 316.203125 C243.34383107 317.17875146 235.01287613 317.78041165 228.5 313.765625 C221.29965688 307.81872652 217.55349043 300.23040229 215.6875 291.203125 C215.2781917 286.6321658 215.25891364 282.10236973 215.3125 277.515625 C215.32192627 276.26974609 215.33135254 275.02386719 215.34106445 273.74023438 C215.48746457 264.8139102 216.35990826 256.83773951 218.6875 248.203125 C219.03640878 246.69389167 219.3797925 245.18337438 219.71875 243.671875 C224.74424804 221.74223002 233.17516669 200.97164193 241.6875 180.203125 C240.66269531 180.36167969 239.63789063 180.52023437 238.58203125 180.68359375 C228.10004441 182.0818929 218.59880376 182.14567091 209.7265625 175.80078125 C203.33249219 170.0907927 199.06843285 161.61334662 197.6875 153.203125 C197.59896454 151.4352556 197.55690784 149.66461481 197.5546875 147.89453125 C197.55339844 146.90001953 197.55210937 145.90550781 197.55078125 144.88085938 C197.55464844 143.85283203 197.55851562 142.82480469 197.5625 141.765625 C197.55863281 140.74146484 197.55476563 139.71730469 197.55078125 138.66210938 C197.55716061 133.73405298 197.64112081 129.0447049 198.6875 124.203125 C192.99977954 131.50280311 187.4207511 138.87372052 181.9375 146.328125 C181.35073486 147.12557129 180.76396973 147.92301758 180.15942383 148.74462891 C177.07279896 152.94451068 173.99552546 157.15104725 170.92578125 161.36328125 C170.30993164 162.20552246 169.69408203 163.04776367 169.05957031 163.91552734 C167.89296982 165.51118246 166.72932808 167.10900704 165.56933594 168.70947266 C158.65025143 178.16251103 152.11642273 186.33121656 140.6875 190.203125 C135.18613114 190.83989179 130.30149548 190.96610468 125.25 188.578125 C119.48305663 183.23315309 116.04133065 178.76649966 115.421875 170.77734375 C115.49397999 152.8412264 117.33935822 135.03011499 119.1875 117.203125 C119.36502808 115.45938599 119.36502808 115.45938599 119.54614258 113.68041992 C120.22178104 107.39079845 121.17748456 101.34732576 122.6875 95.203125 C119.54087088 98.18673666 117.47539625 101.63960584 115.25 105.328125 C103.263199 124.81887636 89.23281923 143.10716759 75.24169922 161.18896484 C71.94996985 165.46811164 68.86722949 169.83617882 65.875 174.328125 C61.64971165 180.52263031 56.39825693 187.46820469 48.6875 189.203125 C43.01310724 189.65347363 39.61075975 189.33610848 34.6875 186.203125 C31.38201913 183.34433074 29.89053735 181.35747508 29.47119141 176.90795898 C29.24049132 165.21225346 31.29258071 153.79196206 33.0625 142.265625 C33.38369265 140.13099162 33.70401111 137.99622652 34.0234375 135.86132812 C34.63465241 131.78204359 35.25046162 127.7034987 35.87011719 123.62548828 C36.70866335 118.09029005 37.50603115 112.55026412 38.27978516 107.00561523 C38.70777207 104.06378181 39.18913815 101.13378616 39.6875 98.203125 C35.01410022 101.95876211 31.04836176 105.84630075 27.5 110.703125 C27.00717529 111.37053711 26.51435059 112.03794922 26.0065918 112.72558594 C12.79078256 130.89509892 0.64234035 149.85520826 -10.84448242 169.15527344 C-21.44070555 186.92584428 -21.44070555 186.92584428 -28.3125 189.203125 C-32.75720728 190.03832326 -36.51407128 190.09018781 -40.625 188.0625 C-45.47043479 184.67782129 -48.5925218 181.2530024 -49.65625 175.26953125 C-50.10581806 168.78451195 -48.30062489 162.78338321 -46.57739258 156.60351562 C-44.45734354 148.96240042 -42.70925332 141.25746654 -41 133.515625 C-38.45442182 122.03263006 -35.70393712 110.61694894 -32.80810547 99.21759033 C-29.88909554 87.70965556 -27.20919969 76.15935398 -24.65820312 64.56445312 C-23.07037053 57.38250471 -21.33058334 50.2768285 -19.3125 43.203125 C-22.5488923 43.74252372 -24.6970437 44.46773363 -26.8359375 47.0234375 C-28.39023513 49.38366724 -29.86517571 51.77584155 -31.3125 54.203125 C-37.6308227 64.53621525 -37.6308227 64.53621525 -43.3125 67.203125 C-48.27405401 67.92480558 -51.66299342 67.12027979 -55.80078125 64.4609375 C-58.35405372 62.33650924 -59.28801012 60.33685876 -60.3125 57.203125 C-60.71814781 51.24946323 -59.87498698 47.00212389 -57.3125 41.578125 C-56.99780762 40.89081299 -56.68311523 40.20350098 -56.35888672 39.49536133 C-48.4075844 22.46328809 -39.08169236 6.77427508 -21.3125 -1.234375 C-13.83732939 -3.94090229 -6.98101539 -3.9971943 0 0 Z " fill="#FEFDFD" transform="translate(115.3125,149.796875)"/>
</svg>
